<svg xmlns="http://www.w3.org/2000/svg" width="1200" height="800" viewBox="0 0 1200 800" role="img" aria-labelledby="title desc">
  <title id="title">Sedgwick's division enveloped in the West Woods</title>
  <desc id="desc">Schematic tactical map with north at top. Gorman, Dana, and Howard advance west in three brigade lines only tens of yards apart. Confederate infantry attacks the exposed Federal left and rear from the south while artillery on Hauser Ridge fires from the west. Kershaw attacks the 125th Pennsylvania near the Dunker Church, and Federal units retreat north.</desc>
  <defs>
    <linearGradient id="paper" x1="0" y1="0" x2="0" y2="1">
      <stop offset="0" stop-color="#faf3e3"/>
      <stop offset="1" stop-color="#e7dbc2"/>
    </linearGradient>
    <pattern id="trees" width="34" height="30" patternUnits="userSpaceOnUse">
      <circle cx="8" cy="17" r="8" fill="#43543d" opacity="0.56"/>
      <circle cx="21" cy="9" r="7" fill="#667257" opacity="0.54"/>
      <circle cx="29" cy="25" r="6" fill="#354834" opacity="0.49"/>
    </pattern>
    <marker id="blueArrow" markerWidth="16" markerHeight="16" refX="14" refY="8" orient="auto" markerUnits="userSpaceOnUse" viewBox="0 0 16 16">
      <path d="M0 0L16 8L0 16Z" fill="#315f8c"/>
    </marker>
    <marker id="redArrow" markerWidth="16" markerHeight="16" refX="14" refY="8" orient="auto" markerUnits="userSpaceOnUse" viewBox="0 0 16 16">
      <path d="M0 0L16 8L0 16Z" fill="#963b31"/>
    </marker>
    <filter id="shadow" x="-20%" y="-20%" width="140%" height="140%">
      <feDropShadow dx="0" dy="2" stdDeviation="3" flood-opacity="0.2"/>
    </filter>
  </defs>

  <rect width="1200" height="800" fill="url(#paper)"/>
  <rect x="28" y="28" width="1144" height="744" rx="18" fill="none" stroke="#97896f" stroke-width="2"/>
  <text x="60" y="77" font-family="Georgia, serif" font-size="32" font-weight="700" fill="#2f2b27">THE WEST WOODS ENVELOPMENT</text>
  <text x="60" y="108" font-family="Arial, sans-serif" font-size="18" fill="#5c5549">Three compressed Federal lines are struck from the south and west · about 9:30 a.m.</text>
  <rect x="48" y="128" width="1104" height="613" fill="#e8e5ce"/>

  <g transform="translate(1092 163)" font-family="Arial, sans-serif" fill="#2f2b27">
    <path d="M0 48V0M0 0L-9 18M0 0L9 18" fill="none" stroke="#2f2b27" stroke-width="3"/>
    <text x="0" y="-9" text-anchor="middle" font-size="18" font-weight="700">N</text>
  </g>

  <path d="M785 128C792 230 796 330 800 435C804 540 807 640 812 741" fill="none" stroke="#a97849" stroke-width="17"/>
  <path d="M785 128C792 230 796 330 800 435C804 540 807 640 812 741" fill="none" stroke="#f1d7a6" stroke-width="6"/>
  <g transform="translate(829 432) rotate(-88)">
    <rect x="-91" y="-14" width="182" height="28" rx="6" fill="#fffaf0" opacity="0.94"/>
    <text x="0" y="5" text-anchor="middle" font-family="Arial, sans-serif" font-size="13" font-weight="700" fill="#6b4d31">HAGERSTOWN TURNPIKE</text>
  </g>

  <path d="M207 128Q374 142 719 167L758 660Q520 727 214 694Q148 609 168 500Q190 391 151 287Q142 196 207 128Z" fill="#59674d"/>
  <path d="M207 128Q374 142 719 167L758 660Q520 727 214 694Q148 609 168 500Q190 391 151 287Q142 196 207 128Z" fill="url(#trees)"/>
  <rect x="348" y="162" width="151" height="35" rx="7" fill="#fffaf0" opacity="0.9"/>
  <text x="423" y="186" text-anchor="middle" font-family="Georgia, serif" font-size="18" font-weight="700" fill="#384535">WEST WOODS</text>

  <path d="M91 128Q129 248 107 352Q88 453 121 555Q139 632 101 741" fill="none" stroke="#9d835f" stroke-width="8" stroke-dasharray="14 8"/>
  <rect x="63" y="220" width="131" height="29" rx="6" fill="#fffaf0" opacity="0.94"/>
  <text x="128" y="241" text-anchor="middle" font-family="Arial, sans-serif" font-size="13" font-weight="700" fill="#685442">HAUSER RIDGE</text>

  <g transform="translate(788 584)" filter="url(#shadow)">
    <rect x="-15" y="-13" width="30" height="28" fill="#f7f1df" stroke="#4b4540" stroke-width="2"/>
    <path d="M-19-13L0-28L19-13Z" fill="#60564c"/>
    <rect x="-5" y="2" width="10" height="13" fill="#776b5c"/>
  </g>
  <rect x="833" y="569" width="160" height="29" rx="6" fill="#fffaf0" opacity="0.94"/>
  <text x="913" y="590" text-anchor="middle" font-family="Georgia, serif" font-size="17" font-weight="700" fill="#342f2b">DUNKER CHURCH</text>

  <g stroke="#315f8c" stroke-width="14" stroke-linecap="round">
    <line x1="546" y1="262" x2="546" y2="540"/>
    <line x1="613" y1="269" x2="613" y2="547"/>
    <line x1="680" y1="276" x2="680" y2="554"/>
  </g>
  <g font-family="Arial, sans-serif" filter="url(#shadow)">
    <g transform="translate(462 450)">
      <rect x="-66" y="-20" width="132" height="40" rx="8" fill="#315f8c"/>
      <text x="0" y="5" text-anchor="middle" font-size="16" font-weight="700" fill="#fff">GORMAN · 1</text>
    </g>
    <g transform="translate(613 599)">
      <rect x="-60" y="-20" width="120" height="40" rx="8" fill="#315f8c"/>
      <text x="0" y="5" text-anchor="middle" font-size="16" font-weight="700" fill="#fff">DANA · 2</text>
    </g>
    <g transform="translate(701 235)">
      <rect x="-69" y="-20" width="138" height="40" rx="8" fill="#315f8c"/>
      <text x="0" y="5" text-anchor="middle" font-size="16" font-weight="700" fill="#fff">HOWARD · 3</text>
    </g>
  </g>
  <path d="M960 382C878 381 799 386 713 404" fill="none" stroke="#315f8c" stroke-width="12" stroke-linecap="round" marker-end="url(#blueArrow)"/>
  <rect x="892" y="334" width="184" height="44" rx="8" fill="#e5edf5" stroke="#315f8c" stroke-width="2" filter="url(#shadow)"/>
  <text x="984" y="361" text-anchor="middle" font-family="Arial, sans-serif" font-size="14" font-weight="700" fill="#244d76">ADVANCE FACES WEST</text>

  <path d="M371 700C400 641 437 583 500 526" fill="none" stroke="#963b31" stroke-width="12" stroke-linecap="round" marker-end="url(#redArrow)"/>
  <path d="M500 714C516 647 537 586 575 532" fill="none" stroke="#963b31" stroke-width="12" stroke-linecap="round" marker-end="url(#redArrow)"/>
  <path d="M250 657C306 598 365 552 445 520" fill="none" stroke="#963b31" stroke-width="11" stroke-linecap="round" marker-end="url(#redArrow)"/>
  <g font-family="Arial, sans-serif" filter="url(#shadow)">
    <g transform="translate(352 691)">
      <rect x="-72" y="-22" width="144" height="44" rx="8" fill="#963b31"/>
      <text x="0" y="5" text-anchor="middle" font-size="15" font-weight="700" fill="#fff">BARKSDALE</text>
    </g>
    <g transform="translate(499 701)">
      <rect x="-62" y="-22" width="124" height="44" rx="8" fill="#963b31"/>
      <text x="0" y="5" text-anchor="middle" font-size="15" font-weight="700" fill="#fff">SEMMES</text>
    </g>
    <g transform="translate(226 619)">
      <rect x="-58" y="-22" width="116" height="44" rx="8" fill="#963b31"/>
      <text x="0" y="5" text-anchor="middle" font-size="15" font-weight="700" fill="#fff">EARLY</text>
    </g>
  </g>

  <path d="M150 340C261 350 362 365 486 391" fill="none" stroke="#963b31" stroke-width="10" stroke-linecap="round" marker-end="url(#redArrow)"/>
  <g transform="translate(190 309)" font-family="Arial, sans-serif" filter="url(#shadow)">
    <rect x="-82" y="-23" width="164" height="46" rx="8" fill="#f6ead7" stroke="#963b31" stroke-width="2"/>
    <text x="0" y="-1" text-anchor="middle" font-size="14" font-weight="700" fill="#7c342d">STUART’S GUNS</text>
    <text x="0" y="16" text-anchor="middle" font-size="11" fill="#7c342d">shot and shell from west</text>
  </g>

  <path d="M705 650C752 622 786 603 823 579" fill="none" stroke="#963b31" stroke-width="10" stroke-linecap="round" marker-end="url(#redArrow)"/>
  <g transform="translate(686 680)" font-family="Arial, sans-serif" filter="url(#shadow)">
    <rect x="-68" y="-22" width="136" height="44" rx="8" fill="#963b31"/>
    <text x="0" y="5" text-anchor="middle" font-size="15" font-weight="700" fill="#fff">KERSHAW</text>
  </g>
  <g transform="translate(922 632)" font-family="Arial, sans-serif" filter="url(#shadow)">
    <rect x="-94" y="-23" width="188" height="46" rx="8" fill="#e5edf5" stroke="#315f8c" stroke-width="2"/>
    <text x="0" y="-1" text-anchor="middle" font-size="13" font-weight="700" fill="#244d76">125th PENNSYLVANIA</text>
    <text x="0" y="16" text-anchor="middle" font-size="11" fill="#244d76">falls back east</text>
  </g>

  <path d="M493 386C430 322 383 276 343 216" fill="none" stroke="#315f8c" stroke-width="9" stroke-linecap="round" stroke-dasharray="14 10" marker-end="url(#blueArrow)"/>
  <path d="M605 389C560 322 530 266 507 211" fill="none" stroke="#315f8c" stroke-width="9" stroke-linecap="round" stroke-dasharray="14 10" marker-end="url(#blueArrow)"/>
  <rect x="225" y="201" width="222" height="31" rx="7" fill="#fffaf0" opacity="0.94"/>
  <text x="336" y="223" text-anchor="middle" font-family="Arial, sans-serif" font-size="14" font-weight="700" fill="#244d76">FEDERAL RETREAT NORTH</text>

  <g transform="translate(1090 276)" font-family="Arial, sans-serif">
    <rect x="-167" y="-54" width="174" height="99" rx="10" fill="#fffaf0" stroke="#93846d" stroke-width="2" opacity="0.97"/>
    <line x1="-147" y1="-28" x2="-112" y2="-28" stroke="#315f8c" stroke-width="8" marker-end="url(#blueArrow)"/>
    <text x="-95" y="-23" font-size="14" fill="#2f2b27">Federal move</text>
    <line x1="-147" y1="12" x2="-112" y2="12" stroke="#963b31" stroke-width="8" marker-end="url(#redArrow)"/>
    <text x="-95" y="17" font-size="14" fill="#2f2b27">Confederate attack</text>
  </g>
</svg>
